@startuml dummy
' package Dummy{
' entity Entität01 {
'    optionales Attribut
'    **optionales fettes Attribut**
'    * **vorgeschriebens fettes Attribut**
' }
' 
' entity Entität01 {
'    optionales Attribut : text
'    **optionales fettes Attribut** nummer <<auto>>
'    * **vorgeschriebens fettes Attribut**
' }
' Entität01 }|..|| Entität02
' Entität03 }o..o| Entität04
' Entität05 ||--o{ Entität06
' Entität07 |o--|| Entität08
' }
@enduml


' TODO:
' Vervollständigen im Sinne  von: https://github.com/gematik/spec-ISiK-Medikation/blob/rc/main-stufe-4/Material/docs/Medikation%20Abgleich%20bestehende%20Spezifikationen.xlsx

@startuml infomodel
'verhindere Probleme mit gewinkelten Krähenfüßen
'skinparam linetype ortho

'ISiK_Medikation.ISiKMedikationsListe::subject --> ISiK_Basis.ISiKPatient
'ISiK_Medikation.ISiKMedikationTransaction --> R4_Core.Bundle
'ISiK_Medikation.ISiKMedikationTransactionResponse --|> R4_Core.Bundle

'together ISiK_DokumentenAustausch {
   class  ISiKDokumentenMetadaten <DocumentReference><<(P,#8DA5C4)>>{
      Dokumentation auf Simplifier 
      [[https://simplifier.net/isik-dokumentenaustausch-v4/isikdokumentenmetadaten ISiK Dokumenten Metadaten]]
   }

   class ISiKDokumentenSuchergebnisse <Bundle><<(P,#8DA5C4)>>{
      Dokumentation auf Simplifier 
      [[https://simplifier.net/isik-dokumentenaustausch-v4/isikdokumentensuchergebnisse ISiK Dokumenten Suchergebnisse]]
   }

   class ISiKConfidentialityCodes <ValueSet><<(V,#8DA5C4)>>{
      Dokumentation auf Simplifier 
      [[https://simplifier.net/isik-dokumentenaustausch-v4/ISiKConfidentialityCodes/ ISiK Confidentiality Codes]]
   }
'}

'together DE_Basisprofile_R4 {
   class IHEXDShealthcareFacilityTypeCode <ValueSet><<(V,#8DA5C4)>>{
      Dokumentation auf Simplifier 
      [[https://simplifier.net/packages/de.basisprofil.r4/1.4.0/files/656621 IHEXDS Healthcare Facility Type Code]]
   }
   class IHEXDSpracticeSettingCode <ValueSet><<(V,#8DA5C4)>>{
      Dokumentation auf Simplifier 
      [[https://simplifier.net/packages/de.basisprofil.r4/1.4.0/files/656622 IHEXDS Practice Setting Code]]
   }
   class IHEXDStypeCode <ValueSet><<(V,#8DA5C4)>>{
      Dokumentation auf Simplifier 
      [[https://simplifier.net/packages/de.basisprofil.r4/1.4.0/files/656623 IHEXDS Type Code]]
   }
   class IHEXDSclassCode <ValueSet><<(V,#8DA5C4)>>{
      Dokumentation auf Simplifier 
      [[https://simplifier.net/packages/de.basisprofil.r4/1.4.0/files/656617 IHEXDS Class Code]]
   }
   class IHEXDSeventCodeList <ValueSet><<(V,#8DA5C4)>>{
      Dokumentation auf Simplifier 
      [[https://simplifier.net/packages/de.basisprofil.r4/1.4.0/files/656619 IHEXDS Event Code List]]
   }
   class IHEXDSformatCodeDE <ValueSet><<(V,#8DA5C4)>>{
      Dokumentation auf Simplifier 
      [[https://simplifier.net/packages/de.basisprofil.r4/1.4.0/files/656620 IHEXDS Format Code]]
   }
'}


class vsKDL as "valueset-kdl-2022" <ValueSet><<(V,#8DA5C4)>>{
   Dokumentation auf Simplifier 
   [[https://simplifier.net/packages/dvmd.kdl.r4.2022/2022.1.2/files/773899 Valueset KDL 2022]]
}

'together ISiK_Basis {
   class ISiKPatient <Patient><<(P,#8DA5C4)>>{
      Dokumentation auf Simplifier 
      [[https://simplifier.net/isik-basis-v4/isikpatient ISiK Patient]]
   }
   class ISiKKontaktGesundheitseinrichtung <Encounter><<(P,#8DA5C4)>>{
      Dokumentation auf Simplifier 
      [[https://simplifier.net/isik-basis-v4/isikkontaktgesundheitseinrichtung ISiK Kontakt Gesundheitseinrichtung]]
   }
   class ISiKPractitioner <Practitioner><<(P,#8DA5C4)>>{
      Dokumentation auf Simplifier 
      [[https://simplifier.net/isik-basis-v4/isikpersonimgesundheitsberuf ISiK Person im Gesundheitsberuf]]
   }
   class ISiKAngehoeriger <RelatedPerson><<(P,#8DA5C4)>>{
      Dokumentation auf Simplifier 
      [[https://simplifier.net/isik-basis-v4/isikangehoeriger ISiK Angehoeriger]]
   }  
'}

'Realtions

'diamonds
together {
<> MultiRef_PracPatRel
MultiRef_PracPatRel -- ISiKPractitioner
MultiRef_PracPatRel -- ISiKPatient
MultiRef_PracPatRel -- ISiKAngehoeriger
<> MultiRef_KDLXDS
MultiRef_KDLXDS .. vsKDL
MultiRef_KDLXDS .. IHEXDStypeCode
}

'Relations
ISiKDokumentenSuchergebnisse::DocumentReference -down- "  1..1  "   ISiKDokumentenMetadaten 


ISiKDokumentenMetadaten::type .. "  1..1  " MultiRef_KDLXDS
ISiKDokumentenMetadaten::category .. "  0..1  " IHEXDSclassCode

ISiKDokumentenMetadaten::subject --> "  1..1  " ISiKPatient
ISiKDokumentenMetadaten::author <--> "  0..1  " MultiRef_PracPatRel
ISiKDokumentenMetadaten::securityLabel .up. "  1..*  "ISiKConfidentialityCodes  
ISiKDokumentenMetadaten::content .. "  1..1  " IHEXDSformatCodeDE
ISiKDokumentenMetadaten::encounter -- "  0..1  " ISiKKontaktGesundheitseinrichtung
ISiKDokumentenMetadaten::context .. "  1..1  " IHEXDSeventCodeList
ISiKDokumentenMetadaten::context .. "  1..1  " IHEXDShealthcareFacilityTypeCode
ISiKDokumentenMetadaten::context .. "  1..1  " IHEXDSpracticeSettingCode


' namespace dummy {
'    class Foo {
'    + field1
'    + field2
'    }
'    class Bar {
'    + field3
'    + field4
'    }
'    Foo::field1 --> Bar::field3 : foo
'    Foo::field2 --> Bar::field4 : bar
' }
@enduml